<mxfile host="app.diagrams.net" modified="2023-04-30T10:03:53.492Z" agent="Mozilla/5.0 (Windows NT 10.0; Win64; x64; rv:109.0) Gecko/20100101 Firefox/112.0" etag="ifctaAOVSGKrP8TFq7X9" version="21.2.1" type="device">
  <diagram name="Page-1" id="5f0bae14-7c28-e335-631c-24af17079c00">
    <mxGraphModel dx="1434" dy="774" grid="1" gridSize="10" guides="1" tooltips="1" connect="1" arrows="1" fold="1" page="1" pageScale="1" pageWidth="1100" pageHeight="850" background="none" math="0" shadow="0">
      <root>
        <mxCell id="0" />
        <mxCell id="1" parent="0" />
        <mxCell id="iAd1V_KEjDD1R978xsl9-26" style="edgeStyle=orthogonalEdgeStyle;rounded=0;orthogonalLoop=1;jettySize=auto;html=1;endArrow=halfCircle;endFill=0;endSize=16;" edge="1" parent="1" source="39150e848f15840c-5">
          <mxGeometry relative="1" as="geometry">
            <mxPoint x="230" y="60" as="targetPoint" />
          </mxGeometry>
        </mxCell>
        <mxCell id="39150e848f15840c-5" value="&lt;div align=&quot;center&quot;&gt;&amp;lt;&amp;lt;Component&amp;gt;&amp;gt;&lt;br&gt;&lt;/div&gt;&lt;div align=&quot;center&quot;&gt;&amp;nbsp;&amp;nbsp; &lt;br&gt;&lt;/div&gt;&lt;div align=&quot;center&quot;&gt;MainWindow&lt;/div&gt;" style="shape=component;align=center;spacingLeft=36;rounded=0;shadow=0;comic=0;labelBackgroundColor=none;strokeWidth=1;fontFamily=Verdana;fontSize=12;html=1;" parent="1" vertex="1">
          <mxGeometry x="10" y="20" width="160" height="80" as="geometry" />
        </mxCell>
        <mxCell id="iAd1V_KEjDD1R978xsl9-27" style="edgeStyle=orthogonalEdgeStyle;rounded=0;orthogonalLoop=1;jettySize=auto;html=1;endArrow=oval;endFill=0;endSize=24;" edge="1" parent="1" source="39150e848f15840c-10">
          <mxGeometry relative="1" as="geometry">
            <mxPoint x="440" y="200" as="targetPoint" />
            <Array as="points">
              <mxPoint x="390" y="200" />
            </Array>
          </mxGeometry>
        </mxCell>
        <mxCell id="iAd1V_KEjDD1R978xsl9-31" style="edgeStyle=orthogonalEdgeStyle;rounded=0;orthogonalLoop=1;jettySize=auto;html=1;endArrow=halfCircle;endFill=0;endSize=16;" edge="1" parent="1" source="39150e848f15840c-10">
          <mxGeometry relative="1" as="geometry">
            <mxPoint x="560" y="60" as="targetPoint" />
          </mxGeometry>
        </mxCell>
        <mxCell id="39150e848f15840c-10" value="&lt;div align=&quot;center&quot;&gt;&amp;lt;&amp;lt;Component&amp;gt;&amp;gt;&lt;/div&gt;&lt;div align=&quot;center&quot;&gt;&lt;br&gt;&lt;/div&gt;&lt;div align=&quot;center&quot;&gt;AddParticipantsPage&lt;/div&gt;" style="shape=component;align=center;spacingLeft=36;rounded=0;shadow=0;comic=0;labelBackgroundColor=none;strokeWidth=1;fontFamily=Verdana;fontSize=12;html=1;" parent="1" vertex="1">
          <mxGeometry x="290" y="20" width="180" height="80" as="geometry" />
        </mxCell>
        <mxCell id="39150e848f15840c-11" style="edgeStyle=none;rounded=0;html=1;labelBackgroundColor=none;startArrow=none;startFill=0;startSize=8;endArrow=oval;endFill=0;endSize=24;fontFamily=Verdana;fontSize=12;exitX=0.083;exitY=0.5;exitDx=0;exitDy=0;exitPerimeter=0;" parent="1" source="39150e848f15840c-10" edge="1">
          <mxGeometry relative="1" as="geometry">
            <mxPoint x="310" y="640" as="sourcePoint" />
            <mxPoint x="230" y="60" as="targetPoint" />
            <Array as="points" />
          </mxGeometry>
        </mxCell>
        <mxCell id="iAd1V_KEjDD1R978xsl9-5" value="IAddParticipantsPage" style="text;html=1;align=center;verticalAlign=middle;resizable=0;points=[];autosize=1;strokeColor=none;fillColor=none;" vertex="1" parent="1">
          <mxGeometry x="170" y="10" width="140" height="30" as="geometry" />
        </mxCell>
        <mxCell id="iAd1V_KEjDD1R978xsl9-30" style="edgeStyle=orthogonalEdgeStyle;rounded=0;orthogonalLoop=1;jettySize=auto;html=1;endArrow=oval;endFill=0;endSize=24;exitX=0.1;exitY=0.5;exitDx=0;exitDy=0;exitPerimeter=0;" edge="1" parent="1" source="iAd1V_KEjDD1R978xsl9-6">
          <mxGeometry relative="1" as="geometry">
            <mxPoint x="560" y="60" as="targetPoint" />
            <mxPoint x="600" y="160" as="sourcePoint" />
            <Array as="points" />
          </mxGeometry>
        </mxCell>
        <mxCell id="iAd1V_KEjDD1R978xsl9-33" style="edgeStyle=orthogonalEdgeStyle;rounded=0;orthogonalLoop=1;jettySize=auto;html=1;endArrow=halfCircle;endFill=0;endSize=16;" edge="1" parent="1" source="iAd1V_KEjDD1R978xsl9-6">
          <mxGeometry relative="1" as="geometry">
            <mxPoint x="690" y="150" as="targetPoint" />
          </mxGeometry>
        </mxCell>
        <mxCell id="iAd1V_KEjDD1R978xsl9-6" value="&lt;div align=&quot;center&quot;&gt;&amp;lt;&amp;lt;Component&amp;gt;&amp;gt;&lt;br&gt;&lt;/div&gt;&lt;div align=&quot;center&quot;&gt;&lt;br&gt;&lt;/div&gt;&lt;div align=&quot;center&quot;&gt;NewTaskPage&lt;/div&gt;" style="shape=component;align=center;spacingLeft=36;rounded=0;shadow=0;comic=0;labelBackgroundColor=none;strokeWidth=1;fontFamily=Verdana;fontSize=12;html=1;" vertex="1" parent="1">
          <mxGeometry x="610" y="20" width="160" height="80" as="geometry" />
        </mxCell>
        <mxCell id="iAd1V_KEjDD1R978xsl9-10" value="INewTaskPage" style="text;html=1;align=center;verticalAlign=middle;resizable=0;points=[];autosize=1;strokeColor=none;fillColor=none;" vertex="1" parent="1">
          <mxGeometry x="500" y="10" width="110" height="30" as="geometry" />
        </mxCell>
        <mxCell id="iAd1V_KEjDD1R978xsl9-28" style="edgeStyle=orthogonalEdgeStyle;rounded=0;orthogonalLoop=1;jettySize=auto;html=1;endArrow=halfCircle;endFill=0;endSize=16;exitX=0;exitY=0.3;exitDx=0;exitDy=0;" edge="1" parent="1" source="iAd1V_KEjDD1R978xsl9-13">
          <mxGeometry relative="1" as="geometry">
            <mxPoint x="440" y="200" as="targetPoint" />
            <Array as="points">
              <mxPoint x="540" y="214" />
              <mxPoint x="540" y="200" />
            </Array>
          </mxGeometry>
        </mxCell>
        <mxCell id="iAd1V_KEjDD1R978xsl9-32" style="edgeStyle=orthogonalEdgeStyle;rounded=0;orthogonalLoop=1;jettySize=auto;html=1;endArrow=oval;endFill=0;endSize=24;" edge="1" parent="1" source="iAd1V_KEjDD1R978xsl9-13">
          <mxGeometry relative="1" as="geometry">
            <mxPoint x="690" y="150" as="targetPoint" />
          </mxGeometry>
        </mxCell>
        <mxCell id="iAd1V_KEjDD1R978xsl9-13" value="&lt;div align=&quot;center&quot;&gt;&amp;lt;&amp;lt;Component&amp;gt;&amp;gt;&lt;br&gt;&lt;br&gt;PlanningPokerPage&lt;/div&gt;" style="shape=component;align=center;spacingLeft=36;rounded=0;shadow=0;comic=0;labelBackgroundColor=none;strokeWidth=1;fontFamily=Verdana;fontSize=12;html=1;" vertex="1" parent="1">
          <mxGeometry x="605" y="190" width="170" height="80" as="geometry" />
        </mxCell>
        <mxCell id="iAd1V_KEjDD1R978xsl9-17" value="IPlanningPokerPage" style="text;html=1;align=center;verticalAlign=middle;resizable=0;points=[];autosize=1;strokeColor=none;fillColor=none;" vertex="1" parent="1">
          <mxGeometry x="710" y="135" width="140" height="30" as="geometry" />
        </mxCell>
        <mxCell id="iAd1V_KEjDD1R978xsl9-34" style="edgeStyle=orthogonalEdgeStyle;rounded=0;orthogonalLoop=1;jettySize=auto;html=1;endArrow=oval;endFill=0;endSize=24;exitX=0.5;exitY=0;exitDx=0;exitDy=0;" edge="1" parent="1" source="iAd1V_KEjDD1R978xsl9-36">
          <mxGeometry relative="1" as="geometry">
            <mxPoint x="380" y="330" as="sourcePoint" />
            <mxPoint x="440" y="260" as="targetPoint" />
            <Array as="points">
              <mxPoint x="390" y="260" />
            </Array>
          </mxGeometry>
        </mxCell>
        <mxCell id="iAd1V_KEjDD1R978xsl9-35" style="edgeStyle=orthogonalEdgeStyle;rounded=0;orthogonalLoop=1;jettySize=auto;html=1;endArrow=halfCircle;endFill=0;endSize=16;exitX=0;exitY=0.7;exitDx=0;exitDy=0;" edge="1" parent="1" source="iAd1V_KEjDD1R978xsl9-13">
          <mxGeometry relative="1" as="geometry">
            <mxPoint x="440" y="260" as="targetPoint" />
            <mxPoint x="575" y="287" as="sourcePoint" />
            <Array as="points">
              <mxPoint x="540" y="246" />
              <mxPoint x="540" y="260" />
            </Array>
          </mxGeometry>
        </mxCell>
        <mxCell id="iAd1V_KEjDD1R978xsl9-36" value="&lt;div align=&quot;center&quot;&gt;&amp;lt;&amp;lt;Component&amp;gt;&amp;gt;&lt;/div&gt;&lt;div align=&quot;center&quot;&gt;&lt;br&gt;&lt;/div&gt;&lt;div align=&quot;center&quot;&gt;FileWritePage&lt;br&gt;&lt;/div&gt;" style="shape=component;align=center;spacingLeft=36;rounded=0;shadow=0;comic=0;labelBackgroundColor=none;strokeWidth=1;fontFamily=Verdana;fontSize=12;html=1;" vertex="1" parent="1">
          <mxGeometry x="300" y="330" width="180" height="80" as="geometry" />
        </mxCell>
        <mxCell id="iAd1V_KEjDD1R978xsl9-37" value="IAddParticipantsPage" style="text;html=1;align=center;verticalAlign=middle;resizable=0;points=[];autosize=1;strokeColor=none;fillColor=none;" vertex="1" parent="1">
          <mxGeometry x="410" y="150" width="140" height="30" as="geometry" />
        </mxCell>
        <mxCell id="iAd1V_KEjDD1R978xsl9-38" value="IFileWritePage" style="text;html=1;align=center;verticalAlign=middle;resizable=0;points=[];autosize=1;strokeColor=none;fillColor=none;" vertex="1" parent="1">
          <mxGeometry x="430" y="280" width="100" height="30" as="geometry" />
        </mxCell>
      </root>
    </mxGraphModel>
  </diagram>
</mxfile>
